<?xml version="1.0" encoding="UTF-8" standalone="no"?>
<svg
   xmlns:dc="http://purl.org/dc/elements/1.1/"
   xmlns:cc="http://creativecommons.org/ns#"
   xmlns:rdf="http://www.w3.org/1999/02/22-rdf-syntax-ns#"
   xmlns:svg="http://www.w3.org/2000/svg"
   xmlns="http://www.w3.org/2000/svg"
   xmlns:sodipodi="http://sodipodi.sourceforge.net/DTD/sodipodi-0.dtd"
   xmlns:inkscape="http://www.inkscape.org/namespaces/inkscape"
   viewBox="0 0 32 32"
   version="1.1"
   id="svg93"
   sodipodi:docname="youtube.svg"
   inkscape:version="0.92.5 (0.92.5+68)">
  <metadata
     id="metadata99">
    <rdf:RDF>
      <cc:Work
         rdf:about="">
        <dc:format>image/svg+xml</dc:format>
        <dc:type
           rdf:resource="http://purl.org/dc/dcmitype/StillImage" />
      </cc:Work>
    </rdf:RDF>
  </metadata>
  <defs
     id="defs97" />
  <sodipodi:namedview
     pagecolor="#ffffff"
     bordercolor="#666666"
     borderopacity="1"
     objecttolerance="10"
     gridtolerance="10"
     guidetolerance="10"
     inkscape:pageopacity="0"
     inkscape:pageshadow="2"
     inkscape:window-width="1299"
     inkscape:window-height="714"
     id="namedview95"
     showgrid="false"
     inkscape:zoom="13.96875"
     inkscape:cx="16"
     inkscape:cy="16"
     inkscape:window-x="67"
     inkscape:window-y="28"
     inkscape:window-maximized="1"
     inkscape:current-layer="svg93" />
  <path
     id="youtube"
     d="m 26.808572,7.2335488 a 3.21021,3.21021 0 0 0 -2.25874,-2.27341 c -1.9924,-0.53732 -9.9816,-0.53732 -9.9816,-0.53732 0,0 -7.9892093,0 -9.9815993,0.53732 a 3.21021,3.21021 0 0 0 -2.25873,2.27341 33.67486,33.67486 0 0 0 -0.53387,6.1892702 33.6751,33.6751 0 0 0 0.53387,6.18928 3.21018,3.21018 0 0 0 2.25874,2.27339 c 1.99239,0.53733 9.9815893,0.53733 9.9815893,0.53733 0,0 7.98919,0 9.98159,-0.53734 a 3.21018,3.21018 0 0 0 2.25874,-2.27339 33.67633,33.67633 0 0 0 0.53386,-6.18927 33.6761,33.6761 0 0 0 -0.53385,-6.1892702 z M 11.955332,17.221519 V 9.6241188 l 6.67742,3.7988202 z"
     inkscape:connector-curvature="0"
     style="fill:#ffffff" />
</svg>
